<mxfile>
    <diagram id="GdaKh1snydrOQaCEKFey" name="Page-1">
        <mxGraphModel dx="2399" dy="1187" grid="1" gridSize="10" guides="1" tooltips="1" connect="1" arrows="1" fold="1" page="1" pageScale="1" pageWidth="827" pageHeight="1169" math="0" shadow="0">
            <root>
                <mxCell id="0"/>
                <mxCell id="1" parent="0"/>
                <mxCell id="46" value="" style="group" vertex="1" connectable="0" parent="1">
                    <mxGeometry x="-808" y="480" width="790" height="75" as="geometry"/>
                </mxCell>
                <mxCell id="2" value="INICIO" style="ellipse;whiteSpace=wrap;html=1;aspect=fixed;" parent="46" vertex="1">
                    <mxGeometry y="5" width="70" height="70" as="geometry"/>
                </mxCell>
                <mxCell id="3" value="VARIAVEIS" style="ellipse;whiteSpace=wrap;html=1;aspect=fixed;" vertex="1" parent="46">
                    <mxGeometry x="278" y="5" width="70" height="70" as="geometry"/>
                </mxCell>
                <mxCell id="4" value="FIM" style="ellipse;whiteSpace=wrap;html=1;aspect=fixed;" vertex="1" parent="46">
                    <mxGeometry x="556" y="5" width="70" height="70" as="geometry"/>
                </mxCell>
                <mxCell id="34" style="edgeStyle=orthogonalEdgeStyle;rounded=0;orthogonalLoop=1;jettySize=auto;html=1;entryX=0;entryY=0.5;entryDx=0;entryDy=0;fontSize=12;" edge="1" parent="46" source="28" target="3">
                    <mxGeometry relative="1" as="geometry"/>
                </mxCell>
                <mxCell id="36" style="edgeStyle=orthogonalEdgeStyle;rounded=0;orthogonalLoop=1;jettySize=auto;html=1;entryX=0;entryY=0.5;entryDx=0;entryDy=0;fontSize=12;" edge="1" parent="46" source="29" target="4">
                    <mxGeometry relative="1" as="geometry"/>
                </mxCell>
                <mxCell id="41" value="" style="group" vertex="1" connectable="0" parent="46">
                    <mxGeometry x="114" width="120" height="60" as="geometry"/>
                </mxCell>
                <mxCell id="33" style="edgeStyle=orthogonalEdgeStyle;rounded=0;orthogonalLoop=1;jettySize=auto;html=1;fontSize=12;exitX=0.25;exitY=0;exitDx=0;exitDy=0;entryX=0.75;entryY=0;entryDx=0;entryDy=0;" edge="1" parent="41" source="28" target="28">
                    <mxGeometry relative="1" as="geometry">
                        <mxPoint x="90" y="20" as="targetPoint"/>
                        <Array as="points">
                            <mxPoint x="30"/>
                            <mxPoint x="90"/>
                        </Array>
                    </mxGeometry>
                </mxCell>
                <mxCell id="28" value="declaracaoVariavel" style="rounded=1;fontSize=12;spacing=0;html=1;" vertex="1" parent="41">
                    <mxGeometry y="20" width="120" height="40" as="geometry"/>
                </mxCell>
                <mxCell id="31" style="edgeStyle=orthogonalEdgeStyle;rounded=0;orthogonalLoop=1;jettySize=auto;html=1;fontSize=12;" edge="1" parent="46" source="2" target="28">
                    <mxGeometry relative="1" as="geometry"/>
                </mxCell>
                <mxCell id="42" value="" style="group" vertex="1" connectable="0" parent="46">
                    <mxGeometry x="392" width="120" height="60" as="geometry"/>
                </mxCell>
                <mxCell id="29" value="declaracao" style="rounded=1;fontSize=12;spacing=0;html=1;" vertex="1" parent="42">
                    <mxGeometry y="20" width="120" height="40" as="geometry"/>
                </mxCell>
                <mxCell id="38" style="edgeStyle=orthogonalEdgeStyle;rounded=0;orthogonalLoop=1;jettySize=auto;html=1;fontSize=12;exitX=0.25;exitY=0;exitDx=0;exitDy=0;entryX=0.75;entryY=0;entryDx=0;entryDy=0;" edge="1" parent="42">
                    <mxGeometry relative="1" as="geometry">
                        <mxPoint x="90" y="20" as="targetPoint"/>
                        <mxPoint x="30" y="20" as="sourcePoint"/>
                        <Array as="points">
                            <mxPoint x="30"/>
                            <mxPoint x="90"/>
                        </Array>
                    </mxGeometry>
                </mxCell>
                <mxCell id="35" style="edgeStyle=orthogonalEdgeStyle;rounded=0;orthogonalLoop=1;jettySize=auto;html=1;entryX=0;entryY=0.5;entryDx=0;entryDy=0;fontSize=12;" edge="1" parent="46" source="3" target="29">
                    <mxGeometry relative="1" as="geometry"/>
                </mxCell>
                <mxCell id="43" value="" style="group" vertex="1" connectable="0" parent="46">
                    <mxGeometry x="670" width="120" height="60" as="geometry"/>
                </mxCell>
                <mxCell id="30" value="declaracaoModulo" style="rounded=1;fontSize=12;spacing=0;html=1;" vertex="1" parent="43">
                    <mxGeometry y="20" width="120" height="40" as="geometry"/>
                </mxCell>
                <mxCell id="39" style="edgeStyle=orthogonalEdgeStyle;rounded=0;orthogonalLoop=1;jettySize=auto;html=1;fontSize=12;exitX=0.25;exitY=0;exitDx=0;exitDy=0;entryX=0.75;entryY=0;entryDx=0;entryDy=0;" edge="1" parent="43">
                    <mxGeometry relative="1" as="geometry">
                        <mxPoint x="90" y="20" as="targetPoint"/>
                        <mxPoint x="30" y="20" as="sourcePoint"/>
                        <Array as="points">
                            <mxPoint x="30"/>
                            <mxPoint x="90"/>
                        </Array>
                    </mxGeometry>
                </mxCell>
                <mxCell id="37" style="edgeStyle=orthogonalEdgeStyle;rounded=0;orthogonalLoop=1;jettySize=auto;html=1;entryX=0;entryY=0.5;entryDx=0;entryDy=0;fontSize=12;" edge="1" parent="46" source="4" target="30">
                    <mxGeometry relative="1" as="geometry"/>
                </mxCell>
            </root>
        </mxGraphModel>
    </diagram>
</mxfile>